<?xml version="1.0" encoding="UTF-8" standalone="no"?>
<!DOCTYPE svg PUBLIC "-//W3C//DTD SVG 1.1//EN" "http://www.w3.org/Graphics/SVG/1.1/DTD/svg11.dtd">
<svg width="100%" height="100%" viewBox="0 0 708 709" version="1.1" xmlns="http://www.w3.org/2000/svg" xmlns:xlink="http://www.w3.org/1999/xlink" xml:space="preserve" xmlns:serif="http://www.serif.com/" style="fill-rule:evenodd;clip-rule:evenodd;stroke-linejoin:round;stroke-miterlimit:1.5;">
    <g transform="matrix(1,0,0,1,-1181.1,-2362.2)">
        <g transform="matrix(0.954414,0,0,1.63105,1007.5,1877.52)">
            <path d="M923.277,330.559L923.277,698.247C923.277,716.679 897.703,731.644 866.203,731.644L238.973,731.644C207.472,731.644 181.898,716.679 181.898,698.247L181.898,330.559C181.898,312.126 207.472,297.161 238.973,297.161L866.203,297.161C897.703,297.161 923.277,312.126 923.277,330.559Z" style="fill:rgb(179,205,200);"/>
        </g>
        <g transform="matrix(1.9,0,0,1.96333,-1563.45,1827.06)">
            <g transform="matrix(0.955691,0,0,0.942479,1197.06,246.289)">
                <g transform="matrix(0.550717,-0,-0,0.540423,258.915,27.8835)">
                    <path d="M531.326,218.43L578.201,234.055L531.326,249.68L531.326,218.43Z"/>
                    <path d="M129.382,234.055L540.701,234.055" style="fill:none;stroke:black;stroke-width:10.42px;"/>
                </g>
            </g>
            <g transform="matrix(0.464572,0.464572,-0.656168,0.656168,1519.12,27.3028)">
                <g transform="matrix(0.566452,-0.401053,0.54818,0.388115,183.659,243.753)">
                    <path d="M252.815,223.189C246.818,216.992 236.918,216.83 230.721,222.827C224.524,228.824 224.362,238.724 230.359,244.921C236.356,251.118 246.256,251.28 252.453,245.283C258.65,239.286 258.812,229.386 252.815,223.189Z"/>
                    <path d="M241.587,234.055C267.768,261.109 353.792,350 353.792,350" style="fill:none;stroke:black;stroke-width:10.42px;stroke-linecap:round;"/>
                </g>
            </g>
            <g transform="matrix(-0.708661,-0.708661,0.590551,-0.590551,1837.4,834.696)">
                <g transform="matrix(-0.371345,0.445614,-0.359366,-0.431239,673.824,143.279)">
                    <path d="M230.359,223.189C224.362,229.386 224.524,239.286 230.721,245.283C236.918,251.28 246.818,251.118 252.815,244.921C258.812,238.724 258.65,228.824 252.453,222.827C246.256,216.83 236.356,216.992 230.359,223.189Z"/>
                    <path d="M241.587,234.055L353.792,118.11" style="fill:none;stroke:black;stroke-width:10.42px;stroke-linecap:round;"/>
                </g>
            </g>
            <g transform="matrix(-0.708661,-0.708661,0.590551,-0.590551,1896.46,893.751)">
                <g transform="matrix(-0.371345,0.445614,-0.359366,-0.431239,757.157,143.279)">
                    <path d="M454.768,223.189C460.765,216.992 470.665,216.83 476.862,222.827C483.059,228.824 483.221,238.724 477.224,244.921C471.227,251.118 461.327,251.28 455.13,245.283C448.933,239.286 448.771,229.386 454.768,223.189Z"/>
                    <path d="M353.792,350L465.996,234.055" style="fill:none;stroke:black;stroke-width:10.42px;stroke-linecap:round;"/>
                </g>
            </g>
            <g transform="matrix(0.464572,0.464572,-0.656168,0.656168,1578.18,-31.7524)">
                <g transform="matrix(0.566452,-0.401053,0.54818,0.388115,183.659,333.753)">
                    <path d="M477.224,223.189C483.221,229.386 483.059,239.286 476.862,245.283C470.665,251.28 460.765,251.118 454.768,244.921C448.771,238.724 448.933,228.824 455.13,222.827C461.327,216.83 471.227,216.992 477.224,223.189Z"/>
                    <path d="M353.792,118.11C379.973,145.164 465.996,234.055 465.996,234.055" style="fill:none;stroke:black;stroke-width:10.42px;stroke-linecap:round;"/>
                </g>
            </g>
        </g>
        <g transform="matrix(0.463345,0,0,0.463345,1258.37,2474.67)">
            <g transform="matrix(323.733,0,0,323.733,186.897,976.552)">
                <path d="M0.15,-0L0.15,-0.36C0.15,-0.436 0.215,-0.473 0.285,-0.473C0.369,-0.473 0.413,-0.423 0.413,-0.319L0.413,-0L0.47,-0L0.47,-0.359C0.47,-0.435 0.533,-0.473 0.604,-0.473C0.69,-0.473 0.733,-0.422 0.733,-0.319L0.733,-0L0.79,-0L0.79,-0.329C0.79,-0.454 0.729,-0.524 0.62,-0.524C0.529,-0.524 0.478,-0.476 0.459,-0.416L0.456,-0.416C0.431,-0.49 0.371,-0.524 0.298,-0.524C0.214,-0.524 0.174,-0.481 0.153,-0.431L0.15,-0.431L0.15,-0.512L0.093,-0.512L0.093,-0L0.15,-0Z" style="fill:rgb(35,31,32);fill-rule:nonzero;"/>
            </g>
            <g transform="matrix(323.733,0,0,323.733,493.407,976.552)">
                <path d="M0.093,-0L0.15,-0L0.15,-0.082L0.153,-0.082C0.181,-0.025 0.231,0.012 0.309,0.012C0.44,0.012 0.52,-0.087 0.52,-0.256C0.52,-0.425 0.44,-0.524 0.309,-0.524C0.231,-0.524 0.178,-0.487 0.153,-0.43L0.15,-0.43L0.15,-0.74L0.093,-0.74L0.093,-0ZM0.296,-0.039C0.217,-0.039 0.15,-0.084 0.15,-0.156L0.15,-0.359C0.15,-0.426 0.217,-0.473 0.296,-0.473C0.398,-0.473 0.459,-0.402 0.459,-0.292L0.459,-0.22C0.459,-0.11 0.398,-0.039 0.296,-0.039Z" style="fill:rgb(35,31,32);fill-rule:nonzero;"/>
            </g>
            <g transform="matrix(323.733,0,0,323.733,702.15,976.552)">
                <path d="M0.15,-0L0.15,-0.35C0.15,-0.416 0.211,-0.456 0.296,-0.456L0.341,-0.456L0.341,-0.512L0.307,-0.512C0.219,-0.512 0.174,-0.468 0.154,-0.42L0.15,-0.42L0.15,-0.512L0.093,-0.512L0.093,-0L0.15,-0Z" style="fill:rgb(35,31,32);fill-rule:nonzero;"/>
            </g>
            <g transform="matrix(323.733,0,0,323.733,840.643,976.552)">
                <path d="M0.238,0.012C0.351,0.012 0.42,-0.045 0.42,-0.14C0.42,-0.222 0.371,-0.267 0.267,-0.283L0.226,-0.289C0.153,-0.301 0.116,-0.324 0.116,-0.383C0.116,-0.441 0.159,-0.475 0.232,-0.475C0.303,-0.475 0.345,-0.442 0.372,-0.41L0.41,-0.445C0.372,-0.491 0.32,-0.524 0.235,-0.524C0.136,-0.524 0.061,-0.476 0.061,-0.38C0.061,-0.288 0.125,-0.251 0.218,-0.237L0.26,-0.23C0.334,-0.219 0.365,-0.188 0.365,-0.134C0.365,-0.072 0.32,-0.037 0.242,-0.037C0.174,-0.037 0.125,-0.064 0.083,-0.119L0.041,-0.086C0.087,-0.023 0.149,0.012 0.238,0.012Z" style="fill:rgb(35,31,32);fill-rule:nonzero;"/>
            </g>
        </g>
        <g transform="matrix(2.69291,0,0,2.3189,188.437,2132.48)">
            <g transform="matrix(0.371345,-0,-0,0.431239,368.621,99.0662)">
                <path d="M369.417,118.11C369.417,109.487 362.415,102.485 353.792,102.485C345.168,102.485 338.167,109.487 338.167,118.11C338.167,126.734 345.168,133.735 353.792,133.735C362.415,133.735 369.417,126.734 369.417,118.11Z"/>
                <path d="M369.417,350C369.417,358.624 362.415,365.625 353.792,365.625C345.168,365.625 338.167,358.624 338.167,350C338.167,341.376 345.168,334.375 353.792,334.375C362.415,334.375 369.417,341.376 369.417,350Z"/>
                <path d="M353.792,118.11L353.792,350" style="fill:none;stroke:black;stroke-width:10.42px;stroke-linecap:round;"/>
            </g>
        </g>
    </g>
</svg>
